PathFileType	4	(X/Y/Z)	Patient4_TMGait_0pt6_02_right_03.trc.trc
DataRate	CameraRate	NumFrames	NumMarkers	Units	OrigDataRate	OrigDataStartFrame	OrigNumFrames
80.459770114943	80.459770114943	4	33	mm	80.459770114943	53	       141
Frame#	Time	Sacral			L.Shoulder			Chest			R.Shoulder			Neck			R.ASIS			L.ASIS			R.Thigh.Superior			R.Thigh.Lateral			R.Thigh.Inferior			R.Patella			L.Thigh.Superior			L.Thigh.Lateral			L.Thigh.Inferior			L.Patella			L.Shank.Superior			L.Shank.Lateral			L.Shank.Inferior			R.Shank.Superior			R.Shank.Lateral			R.Shank.Inferior			R.Heel			R.Midfoot.Superior			R.Midfoot.Lateral			R.Toe			L.Heel			L.Midfoot.Lateral			L.Midfoot.Superior			L.Toe			L.Elbow			L.Wrist			R.Elbow			R.Wrist			
		X1	Y1	Z1	X2	Y2	Z2	X3	Y3	Z3	X4	Y4	Z4	X5	Y5	Z5	X6	Y6	Z6	X7	Y7	Z7	X8	Y8	Z8	X9	Y9	Z9	X10	Y10	Z10	X11	Y11	Z11	X12	Y12	Z12	X13	Y13	Z13	X14	Y14	Z14	X15	Y15	Z15	X16	Y16	Z16	X17	Y17	Z17	X18	Y18	Z18	X19	Y19	Z19	X20	Y20	Z20	X21	Y21	Z21	X22	Y22	Z22	X23	Y23	Z23	X24	Y24	Z24	X25	Y25	Z25	X26	Y26	Z26	X27	Y27	Z27	X28	Y28	Z28	X29	Y29	Z29	X30	Y30	Z30	X31	Y31	Z31	X32	Y32	Z32	X33	Y33	Z33	

53	3.576285714286	708.129635551638	1011.810790360016	531.955739376594	863.822773801018	1430.224593866480	323.942721072595	983.425569396637	1368.932091290254	476.428874226196	916.483050123419	1448.068387873510	654.436847569674	861.007072446602	1496.375949315147	475.246401749052	940.629258539766	943.781424194741	634.355768426498	909.747751408262	964.176211156392	361.925367303391	970.691687987726	737.299704103667	602.767111895418	883.490315069412	633.059703286638	662.879073831965	954.097259343078	577.724094055235	580.014669726513	948.062430798303	489.062099057244	584.098545088219	1001.852171374582	793.295498378094	397.812255815887	969.822516707204	665.519566952465	318.145973404053	1075.684389405509	609.380059323382	383.241636507403	1096.820182365014	521.827510525988	374.770367739664	1039.553986927495	449.641354755790	364.410335865837	906.695705723257	385.851504852419	316.332443824673	919.010511647973	254.657004382842	366.408387137204	916.989009918808	401.354765165938	590.230160838948	841.042717282867	299.594959354521	648.756603366707	879.733902731361	204.604706795472	584.389316804741	740.265321427849	42.699613538863	547.996173725049	910.093392320654	96.793458716873	591.443873303427	820.010073447160	36.610995305751	627.362795272805	1028.709914399210	43.302689163291	625.988197354197	744.928862549918	161.465800901520	407.500742212600	804.154035981517	123.943722912263	324.650279491646	907.421493571068	145.933702790787	342.044864743157	997.571479824895	45.154136122077	310.437823704620	792.851621707305	1073.845283161875	236.398350261050	825.042310008777	816.008860921614	241.592033656503	952.481584158667	1118.266723795868	803.778671593871	1190.019701350201	1068.483509096389	731.997502371752	
54	3.588714285714	707.068496117260	1012.531970347998	533.040214979036	863.020423256787	1430.572413687893	324.789981443946	983.494532279145	1368.661693264845	476.304836568787	918.232442821001	1448.119762865563	654.788541468290	861.468421769093	1496.346547489038	476.355218020181	939.768503131955	943.321020742629	633.904549000847	907.490981963504	964.656289120219	361.657985645181	967.425824003776	736.340277007580	601.680991168732	879.745073344512	632.909835788004	662.679226735458	949.037667043306	576.891194058417	579.331517775112	942.167798034359	488.510084029651	583.557338160937	1000.261255032853	795.406516129868	397.996539477586	969.751587347674	667.166966158591	318.350978753378	1075.612867180496	612.157665233468	384.081945225487	1098.524038132802	526.010423508176	375.432917655479	1044.987643914129	452.521316674666	364.807350089017	916.435234754584	380.795177050605	316.783296808881	937.120331986476	250.403630061186	366.798581948766	910.794570882012	400.944996985548	589.919676663054	834.553355719333	299.500808858114	648.642507825601	872.690716126669	204.359847897710	584.247495665809	732.735013926657	42.643521309796	548.066913494758	902.511242631733	96.737078453279	591.410909272124	812.459045098878	36.583698845137	627.397093918427	1021.146309281376	43.309365377059	625.999289804909	769.534791839030	145.189112513728	408.168455442975	831.161140500967	112.617720425065	324.951809335755	932.683097170863	141.767920173948	342.287540777744	1029.852412464237	48.030819382947	309.883923798814	785.414131757675	1075.450984913304	238.402988323331	812.329111463184	817.087474000013	244.889831467311	962.386215323336	1119.435711347341	803.042426412435	1200.734160233975	1087.135230840175	726.959265206060	
55	3.601142857143	706.121497524470	1013.134558527265	534.023690522464	862.260602046733	1430.872003018869	325.560518602275	983.611855093805	1368.284130063524	476.063424278635	920.051958117226	1448.011060696000	655.040070322903	861.955553390678	1496.246825710395	477.359880720722	938.973697159135	942.772813818495	633.287734158607	905.306375394897	964.982590416608	361.232246582201	964.231216668285	735.338295848329	600.580240089629	876.057975154017	632.709674938299	662.449400602280	944.043057758308	576.015497542742	578.647127758927	936.338515739018	487.937060484925	583.028799542588	998.373937091132	796.968326928468	397.961997868541	969.102255342981	668.323855901909	318.377332776737	1074.728945794064	614.224786215235	384.880069783462	1099.337263400240	529.689184952408	376.062916630078	1049.676359006268	455.129995318867	365.213100763749	926.215123449135	375.492176789108	316.917263472440	955.200502425384	246.488725425865	367.191876792067	904.662379377024	400.505070030957	589.594302315721	828.121277531668	299.390490012370	648.525680195792	865.663452222508	204.094802428460	584.097348520367	725.217574087827	42.588481442606	548.151970634939	894.931014220547	96.674016858475	591.362307675417	804.909813412600	36.553957354363	627.414261446683	1013.588717631988	43.294579022812	626.004520861749	794.917569457015	129.627298447102	408.432177170717	858.905324602190	102.030992198247	325.179165115822	958.102903006246	138.235409318149	342.760928940182	1061.890650926186	51.894013777860	310.189605089038	778.298146545075	1077.089576771400	240.410515907299	800.285280857592	818.320555634834	247.995152720273	972.322716921506	1120.546811826035	801.950480330093	1210.195651558783	1105.322721994040	721.745305904849	
56	3.613571428571	705.298597405491	1013.611455092011	534.902149922042	861.554238230438	1431.120601061719	326.241186760798	983.773603662154	1367.805586496183	475.706754591508	921.911878151056	1447.746862450995	655.184125793646	862.457301665850	1496.086225280834	478.224395686984	938.252468497702	942.152422151170	632.518192190363	903.220867787684	965.156401546967	360.653944398571	961.146975828430	734.302858459853	599.503574282237	872.439660302137	632.461148629631	662.195587794479	939.148670318358	575.101878923123	577.988178345979	930.608419585527	487.339929478348	582.523189221640	996.221844186817	797.991764012921	397.746009831994	967.936740368317	669.008318249397	318.216267506281	1073.123490928587	615.608495591266	385.617732498229	1099.358034632618	532.872753302396	376.664567880132	1053.646260636172	457.484765870008	365.645193025120	936.006125301573	370.150912020786	316.722863102602	973.006967456671	243.109120259240	367.603885528588	898.615301633148	400.033386644097	589.258919804659	821.763024329505	299.268928031383	648.409117155635	858.665542991774	203.812556629263	583.941161057143	717.710449351056	42.538941190746	548.250016768464	887.355676127237	96.605323611383	591.300143517927	797.363465157594	36.522600031877	627.411893407828	1006.039343978650	43.258506582250	626.007284004620	820.671613158089	115.218567489609	408.256559924081	887.001691552293	92.518906940160	325.343876056770	983.316834714820	135.544304211865	343.497239197375	1093.215196998920	56.828521667383	311.484965921941	771.575130059837	1078.729504905899	242.396437872373	788.947537689660	819.653937260646	250.873981241372	982.244551615076	1121.591002736556	800.500715126667	1218.484874371331	1122.843582904832	716.404764427144	
